<?xml version="1.0" standalone="no"?>
<!DOCTYPE svg PUBLIC "-//W3C//DTD SVG 20010904//EN"
 "http://www.w3.org/TR/2001/REC-SVG-20010904/DTD/svg10.dtd">
<svg version="1.0" xmlns="http://www.w3.org/2000/svg"
 width="850.000000pt" height="981.000000pt" viewBox="0 0 850.000000 981.000000"
 preserveAspectRatio="xMidYMid meet">

<g transform="translate(0.000000,981.000000) scale(0.100000,-0.100000)"
fill="#ffffff" stroke="none">
<path d="M4114 9795 c-251 -54 -452 -246 -514 -491 -20 -76 -20 -121 -20
-2471 0 -1316 -3 -2393 -8 -2393 -4 0 -212 205 -462 456 -348 348 -472 465
-525 499 -225 140 -505 136 -726 -10 -287 -192 -382 -567 -223 -878 35 -67
110 -145 1108 -1145 765 -767 1090 -1086 1139 -1119 227 -151 529 -145 759 16
24 16 525 512 1114 1103 l1072 1073 41 85 c55 114 71 184 71 305 0 121 -17
192 -70 301 -68 138 -201 263 -343 321 -185 75 -369 68 -557 -24 l-95 -46
-472 -470 -473 -471 -3 2400 c-2 2238 -4 2403 -20 2463 -23 85 -79 194 -134
261 -158 194 -420 287 -659 235z"/>
<path d="M545 3565 c-206 -45 -375 -176 -464 -357 -76 -154 -71 -64 -71 -1413
0 -1347 -4 -1260 70 -1410 68 -139 168 -239 306 -306 154 -75 -182 -69 3862
-69 4069 0 3706 -7 3871 72 68 33 101 56 171 127 99 98 149 184 180 307 19 75
20 116 20 1279 0 1163 -1 1204 -20 1279 -31 121 -82 208 -180 306 -68 69 -102
94 -170 127 -200 98 -425 94 -625 -10 -36 -19 -94 -66 -146 -117 -70 -69 -94
-101 -127 -170 -75 -154 -72 -108 -72 -1027 l0 -823 -2900 0 -2900 0 0 823 c0
801 -1 824 -21 897 -34 123 -82 205 -178 300 -69 68 -103 94 -171 127 -138 68
-296 89 -435 58z"/>
</g>
</svg>
