<?xml version="1.0" encoding="UTF-8" standalone="no"?>
<!DOCTYPE svg PUBLIC "-//W3C//DTD SVG 1.1//EN" "http://www.w3.org/Graphics/SVG/1.1/DTD/svg11.dtd">
<svg width="100%" height="100%" viewBox="0 0 822 821" version="1.1" xmlns="http://www.w3.org/2000/svg" style="fill-rule:evenodd;clip-rule:evenodd;stroke-linejoin:round;stroke-miterlimit:2;">
    <g transform="matrix(1,0,0,1,-126.411,-508.553)">
        <g id="Logo" transform="matrix(1,0,0,1,-12.1982,43.9136)">
            <g transform="matrix(2.45558,0,0,2.45558,635.557,1245.74)">
                <path d="M0,-90.203L-46.327,-51.748L-46.849,-83.469C-46.849,-83.469 -56.454,-83.59 -67.949,-89.775C-75.964,-94.09 -82.795,-99.74 -88.353,-106.287L-173.437,-57.164C-143.322,-12.953 -92.582,16.084 -35.056,16.084C22.473,16.084 73.213,-12.953 103.325,-57.164L18.302,-106.252C9.886,-97.609 0,-90.203 0,-90.203" style="fill:rgb(0,178,239);fill-rule:nonzero;"/>
            </g>
            <g transform="matrix(2.45558,0,0,2.45558,960.339,639.24)">
                <path d="M0,95.755C0,8.128 -67.363,-63.755 -153.129,-70.958L-153.129,8.71C-110.841,15.466 -78.42,52.185 -78.42,96.346C-78.42,107.234 -80.4,117.664 -84.005,127.312L-15.761,166.713C-5.657,145.168 0,121.123 0,95.755" style="fill:rgb(246,134,47);fill-rule:nonzero;"/>
            </g>
            <g transform="matrix(2.45558,0,0,2.45558,518.989,853.164)">
                <path d="M0,-78.626L0,-158.221C-86.609,-151.868 -154.904,-79.593 -154.904,8.638C-154.904,34.009 -149.247,58.05 -139.142,79.595L-70.673,40.064C-74.244,30.455 -76.206,20.068 -76.206,9.228C-76.206,-35.45 -43.016,-72.507 0,-78.626" style="fill:rgb(200,218,43);fill-rule:nonzero;"/>
            </g>
            <g transform="matrix(-2.1037,-1.26662,-1.26662,2.1037,344.913,874.32)">
                <path d="M-27.787,-91.283C-4.91,-70.65 0.955,-35.985 -15.517,-8.627C-18.939,-2.944 -23.097,2.028 -27.787,6.258L-55.907,-44.579L-27.787,-91.283Z" style="fill:rgb(200,218,43);fill-rule:nonzero;"/>
            </g>
        </g>
    </g>
</svg>
